<svg xmlns="http://www.w3.org/2000/svg" width="750" viewBox="0 0 750 225" height="225" version="1.0"><g><g><g><path d="M 45.578125 -20.171875 C 49.304688 -20.171875 52.382812 -20.476562 54.8125 -21.09375 C 57.25 -21.71875 59.195312 -22.566406 60.65625 -23.640625 C 62.125 -24.710938 63.140625 -25.984375 63.703125 -27.453125 C 64.273438 -28.921875 64.5625 -30.554688 64.5625 -32.359375 C 64.5625 -36.203125 62.753906 -39.394531 59.140625 -41.9375 C 55.523438 -44.476562 49.3125 -47.21875 40.5 -50.15625 C 36.65625 -51.507812 32.8125 -53.0625 28.96875 -54.8125 C 25.132812 -56.5625 21.691406 -58.765625 18.640625 -61.421875 C 15.585938 -64.078125 13.097656 -67.296875 11.171875 -71.078125 C 9.253906 -74.867188 8.296875 -79.472656 8.296875 -84.890625 C 8.296875 -90.316406 9.3125 -95.203125 11.34375 -99.546875 C 13.382812 -103.898438 16.269531 -107.601562 20 -110.65625 C 23.726562 -113.707031 28.242188 -116.050781 33.546875 -117.6875 C 38.859375 -119.320312 44.847656 -120.140625 51.515625 -120.140625 C 59.421875 -120.140625 66.253906 -119.289062 72.015625 -117.59375 C 77.773438 -115.90625 82.519531 -114.046875 86.25 -112.015625 L 78.625 -91.171875 C 75.351562 -92.859375 71.710938 -94.351562 67.703125 -95.65625 C 63.691406 -96.957031 58.859375 -97.609375 53.203125 -97.609375 C 46.878906 -97.609375 42.332031 -96.734375 39.5625 -94.984375 C 36.800781 -93.234375 35.421875 -90.546875 35.421875 -86.921875 C 35.421875 -84.773438 35.925781 -82.96875 36.9375 -81.5 C 37.957031 -80.03125 39.398438 -78.703125 41.265625 -77.515625 C 43.128906 -76.335938 45.273438 -75.265625 47.703125 -74.296875 C 50.128906 -73.335938 52.8125 -72.351562 55.75 -71.34375 C 61.851562 -69.082031 67.160156 -66.847656 71.671875 -64.640625 C 76.191406 -62.441406 79.945312 -59.875 82.9375 -56.9375 C 85.9375 -54 88.171875 -50.550781 89.640625 -46.59375 C 91.109375 -42.644531 91.84375 -37.847656 91.84375 -32.203125 C 91.84375 -21.242188 88 -12.738281 80.3125 -6.6875 C 72.632812 -0.644531 61.054688 2.375 45.578125 2.375 C 40.378906 2.375 35.691406 2.0625 31.515625 1.4375 C 27.335938 0.820312 23.640625 0.0625 20.421875 -0.84375 C 17.203125 -1.75 14.429688 -2.707031 12.109375 -3.71875 C 9.796875 -4.738281 7.847656 -5.703125 6.265625 -6.609375 L 13.71875 -27.625 C 17.226562 -25.695312 21.550781 -23.972656 26.6875 -22.453125 C 31.832031 -20.929688 38.128906 -20.171875 45.578125 -20.171875 Z M 45.578125 -20.171875" transform="translate(21.113 162.817)"/></g></g></g><g><g><g><path d="M 37.109375 0 L 11.859375 0 L 11.859375 -89.125 L 37.109375 -89.125 Z M 39.484375 -114.890625 C 39.484375 -110.253906 37.984375 -106.609375 34.984375 -103.953125 C 31.992188 -101.304688 28.46875 -99.984375 24.40625 -99.984375 C 20.332031 -99.984375 16.796875 -101.304688 13.796875 -103.953125 C 10.804688 -106.609375 9.3125 -110.253906 9.3125 -114.890625 C 9.3125 -119.523438 10.804688 -123.164062 13.796875 -125.8125 C 16.796875 -128.46875 20.332031 -129.796875 24.40625 -129.796875 C 28.46875 -129.796875 31.992188 -128.46875 34.984375 -125.8125 C 37.984375 -123.164062 39.484375 -119.523438 39.484375 -114.890625 Z M 39.484375 -114.890625" transform="translate(118.024 162.817)"/></g></g></g><g><g><g><path d="M 37.453125 -18.125 C 42.078125 -18.125 45.347656 -18.578125 47.265625 -19.484375 C 49.191406 -20.390625 50.15625 -22.140625 50.15625 -24.734375 C 50.15625 -26.773438 48.910156 -28.554688 46.421875 -30.078125 C 43.941406 -31.597656 40.160156 -33.320312 35.078125 -35.25 C 31.117188 -36.71875 27.53125 -38.238281 24.3125 -39.8125 C 21.09375 -41.394531 18.351562 -43.285156 16.09375 -45.484375 C 13.832031 -47.691406 12.082031 -50.320312 10.84375 -53.375 C 9.601562 -56.425781 8.984375 -60.097656 8.984375 -64.390625 C 8.984375 -72.753906 12.085938 -79.363281 18.296875 -84.21875 C 24.515625 -89.070312 33.046875 -91.5 43.890625 -91.5 C 49.304688 -91.5 54.5 -91.019531 59.46875 -90.0625 C 64.445312 -89.101562 68.40625 -88.054688 71.34375 -86.921875 L 66.9375 -67.265625 C 64 -68.285156 60.804688 -69.191406 57.359375 -69.984375 C 53.910156 -70.773438 50.039062 -71.171875 45.75 -71.171875 C 37.84375 -71.171875 33.890625 -68.96875 33.890625 -64.5625 C 33.890625 -63.539062 34.054688 -62.632812 34.390625 -61.84375 C 34.734375 -61.0625 35.410156 -60.300781 36.421875 -59.5625 C 37.441406 -58.832031 38.828125 -58.039062 40.578125 -57.1875 C 42.328125 -56.34375 44.5625 -55.410156 47.28125 -54.390625 C 52.8125 -52.359375 57.382812 -50.351562 61 -48.375 C 64.613281 -46.394531 67.46875 -44.25 69.5625 -41.9375 C 71.65625 -39.625 73.125 -37.054688 73.96875 -34.234375 C 74.8125 -31.410156 75.234375 -28.132812 75.234375 -24.40625 C 75.234375 -15.59375 71.925781 -8.925781 65.3125 -4.40625 C 58.707031 0.113281 49.363281 2.375 37.28125 2.375 C 29.375 2.375 22.789062 1.695312 17.53125 0.34375 C 12.28125 -1.007812 8.640625 -2.140625 6.609375 -3.046875 L 10.84375 -23.546875 C 15.132812 -21.859375 19.539062 -20.53125 24.0625 -19.5625 C 28.582031 -18.601562 33.046875 -18.125 37.453125 -18.125 Z M 37.453125 -18.125" transform="translate(165.294 162.817)"/></g></g></g><g><g><g><path d="M 44.734375 -117.4375 C 46.765625 -113.707031 49.109375 -109.101562 51.765625 -103.625 C 54.421875 -98.144531 57.1875 -92.210938 60.0625 -85.828125 C 62.945312 -79.441406 65.800781 -72.914062 68.625 -66.25 C 71.445312 -59.59375 74.101562 -53.328125 76.59375 -47.453125 C 79.082031 -53.328125 81.738281 -59.59375 84.5625 -66.25 C 87.382812 -72.914062 90.234375 -79.441406 93.109375 -85.828125 C 95.992188 -92.210938 98.765625 -98.144531 101.421875 -103.625 C 104.078125 -109.101562 106.421875 -113.707031 108.453125 -117.4375 L 132.515625 -117.4375 C 133.640625 -109.632812 134.679688 -100.90625 135.640625 -91.25 C 136.609375 -81.59375 137.457031 -71.535156 138.1875 -61.078125 C 138.925781 -50.628906 139.601562 -40.148438 140.21875 -29.640625 C 140.84375 -19.140625 141.378906 -9.257812 141.828125 0 L 116.078125 0 C 115.734375 -11.40625 115.28125 -23.828125 114.71875 -37.265625 C 114.15625 -50.710938 113.304688 -64.273438 112.171875 -77.953125 C 110.140625 -73.203125 107.878906 -67.945312 105.390625 -62.1875 C 102.910156 -56.425781 100.457031 -50.664062 98.03125 -44.90625 C 95.601562 -39.144531 93.257812 -33.632812 91 -28.375 C 88.738281 -23.125 86.816406 -18.632812 85.234375 -14.90625 L 66.765625 -14.90625 C 65.179688 -18.632812 63.257812 -23.125 61 -28.375 C 58.738281 -33.632812 56.394531 -39.144531 53.96875 -44.90625 C 51.539062 -50.664062 49.082031 -56.425781 46.59375 -62.1875 C 44.113281 -67.945312 41.859375 -73.203125 39.828125 -77.953125 C 38.691406 -64.273438 37.84375 -50.710938 37.28125 -37.265625 C 36.71875 -23.828125 36.265625 -11.40625 35.921875 0 L 10.171875 0 C 10.617188 -9.257812 11.148438 -19.140625 11.765625 -29.640625 C 12.390625 -40.148438 13.066406 -50.628906 13.796875 -61.078125 C 14.535156 -71.535156 15.382812 -81.59375 16.34375 -91.25 C 17.3125 -100.90625 18.359375 -109.632812 19.484375 -117.4375 Z M 44.734375 -117.4375" transform="translate(245.77 162.817)"/></g></g></g><g><g><g><path d="M 13.5625 -117.4375 L 39.984375 -117.4375 L 39.984375 0 L 13.5625 0 Z M 13.5625 -117.4375" transform="translate(396.051 162.817)"/></g></g></g><g><g><g><path d="M 39.984375 -21.515625 C 41.234375 -21.398438 42.675781 -21.316406 44.3125 -21.265625 C 45.945312 -21.210938 47.894531 -21.1875 50.15625 -21.1875 C 63.375 -21.1875 73.171875 -24.515625 79.546875 -31.171875 C 85.929688 -37.835938 89.125 -47.046875 89.125 -58.796875 C 89.125 -71.109375 86.070312 -80.425781 79.96875 -86.75 C 73.875 -93.082031 64.21875 -96.25 51 -96.25 C 49.195312 -96.25 47.332031 -96.21875 45.40625 -96.15625 C 43.488281 -96.101562 41.679688 -95.960938 39.984375 -95.734375 Z M 116.421875 -58.796875 C 116.421875 -48.628906 114.835938 -39.757812 111.671875 -32.1875 C 108.503906 -24.625 104.007812 -18.359375 98.1875 -13.390625 C 92.375 -8.421875 85.285156 -4.691406 76.921875 -2.203125 C 68.566406 0.285156 59.191406 1.53125 48.796875 1.53125 C 44.054688 1.53125 38.519531 1.332031 32.1875 0.9375 C 25.863281 0.539062 19.65625 -0.28125 13.5625 -1.53125 L 13.5625 -115.90625 C 19.65625 -117.03125 26.003906 -117.789062 32.609375 -118.1875 C 39.222656 -118.582031 44.90625 -118.78125 49.65625 -118.78125 C 59.707031 -118.78125 68.828125 -117.648438 77.015625 -115.390625 C 85.203125 -113.140625 92.234375 -109.582031 98.109375 -104.71875 C 103.984375 -99.863281 108.503906 -93.648438 111.671875 -86.078125 C 114.835938 -78.515625 116.421875 -69.421875 116.421875 -58.796875 Z M 116.421875 -58.796875" transform="translate(447.895 162.817)"/></g></g></g><g><g><g><path d="M 5.078125 -1.421875 C 7.160156 -1.421875 8.203125 -2.132812 8.203125 -3.5625 C 8.203125 -4 8.109375 -4.367188 7.921875 -4.671875 C 7.742188 -4.984375 7.492188 -5.253906 7.171875 -5.484375 C 6.859375 -5.710938 6.5 -5.90625 6.09375 -6.0625 C 5.695312 -6.226562 5.269531 -6.394531 4.8125 -6.5625 C 4.289062 -6.738281 3.796875 -6.941406 3.328125 -7.171875 C 2.867188 -7.398438 2.46875 -7.664062 2.125 -7.96875 C 1.78125 -8.28125 1.507812 -8.648438 1.3125 -9.078125 C 1.113281 -9.503906 1.015625 -10.019531 1.015625 -10.625 C 1.015625 -11.863281 1.4375 -12.832031 2.28125 -13.53125 C 3.132812 -14.238281 4.304688 -14.59375 5.796875 -14.59375 C 6.660156 -14.59375 7.445312 -14.5 8.15625 -14.3125 C 8.863281 -14.125 9.382812 -13.921875 9.71875 -13.703125 L 9.078125 -12.078125 C 8.785156 -12.253906 8.351562 -12.425781 7.78125 -12.59375 C 7.21875 -12.769531 6.554688 -12.859375 5.796875 -12.859375 C 5.421875 -12.859375 5.066406 -12.816406 4.734375 -12.734375 C 4.398438 -12.648438 4.109375 -12.523438 3.859375 -12.359375 C 3.617188 -12.203125 3.425781 -11.992188 3.28125 -11.734375 C 3.132812 -11.484375 3.0625 -11.1875 3.0625 -10.84375 C 3.0625 -10.457031 3.132812 -10.132812 3.28125 -9.875 C 3.4375 -9.613281 3.648438 -9.382812 3.921875 -9.1875 C 4.203125 -8.988281 4.523438 -8.804688 4.890625 -8.640625 C 5.253906 -8.472656 5.65625 -8.3125 6.09375 -8.15625 C 6.707031 -7.90625 7.269531 -7.65625 7.78125 -7.40625 C 8.300781 -7.15625 8.75 -6.859375 9.125 -6.515625 C 9.5 -6.179688 9.789062 -5.773438 10 -5.296875 C 10.207031 -4.828125 10.3125 -4.253906 10.3125 -3.578125 C 10.3125 -2.328125 9.851562 -1.363281 8.9375 -0.6875 C 8.03125 -0.0195312 6.742188 0.3125 5.078125 0.3125 C 4.515625 0.3125 3.992188 0.269531 3.515625 0.1875 C 3.046875 0.113281 2.625 0.03125 2.25 -0.0625 C 1.882812 -0.164062 1.566406 -0.273438 1.296875 -0.390625 C 1.035156 -0.515625 0.828125 -0.617188 0.671875 -0.703125 L 1.28125 -2.34375 C 1.59375 -2.164062 2.070312 -1.96875 2.71875 -1.75 C 3.363281 -1.53125 4.148438 -1.421875 5.078125 -1.421875 Z M 5.078125 -1.421875" transform="translate(21.113 220.199)"/></g></g></g><g><g><g><path d="M 1.765625 -14.265625 L 3.765625 -14.265625 L 3.765625 0 L 1.765625 0 Z M 1.765625 -14.265625" transform="translate(34.736 220.199)"/></g></g></g><g><g><g><path d="M 5.078125 -1.421875 C 7.160156 -1.421875 8.203125 -2.132812 8.203125 -3.5625 C 8.203125 -4 8.109375 -4.367188 7.921875 -4.671875 C 7.742188 -4.984375 7.492188 -5.253906 7.171875 -5.484375 C 6.859375 -5.710938 6.5 -5.90625 6.09375 -6.0625 C 5.695312 -6.226562 5.269531 -6.394531 4.8125 -6.5625 C 4.289062 -6.738281 3.796875 -6.941406 3.328125 -7.171875 C 2.867188 -7.398438 2.46875 -7.664062 2.125 -7.96875 C 1.78125 -8.28125 1.507812 -8.648438 1.3125 -9.078125 C 1.113281 -9.503906 1.015625 -10.019531 1.015625 -10.625 C 1.015625 -11.863281 1.4375 -12.832031 2.28125 -13.53125 C 3.132812 -14.238281 4.304688 -14.59375 5.796875 -14.59375 C 6.660156 -14.59375 7.445312 -14.5 8.15625 -14.3125 C 8.863281 -14.125 9.382812 -13.921875 9.71875 -13.703125 L 9.078125 -12.078125 C 8.785156 -12.253906 8.351562 -12.425781 7.78125 -12.59375 C 7.21875 -12.769531 6.554688 -12.859375 5.796875 -12.859375 C 5.421875 -12.859375 5.066406 -12.816406 4.734375 -12.734375 C 4.398438 -12.648438 4.109375 -12.523438 3.859375 -12.359375 C 3.617188 -12.203125 3.425781 -11.992188 3.28125 -11.734375 C 3.132812 -11.484375 3.0625 -11.1875 3.0625 -10.84375 C 3.0625 -10.457031 3.132812 -10.132812 3.28125 -9.875 C 3.4375 -9.613281 3.648438 -9.382812 3.921875 -9.1875 C 4.203125 -8.988281 4.523438 -8.804688 4.890625 -8.640625 C 5.253906 -8.472656 5.65625 -8.3125 6.09375 -8.15625 C 6.707031 -7.90625 7.269531 -7.65625 7.78125 -7.40625 C 8.300781 -7.15625 8.75 -6.859375 9.125 -6.515625 C 9.5 -6.179688 9.789062 -5.773438 10 -5.296875 C 10.207031 -4.828125 10.3125 -4.253906 10.3125 -3.578125 C 10.3125 -2.328125 9.851562 -1.363281 8.9375 -0.6875 C 8.03125 -0.0195312 6.742188 0.3125 5.078125 0.3125 C 4.515625 0.3125 3.992188 0.269531 3.515625 0.1875 C 3.046875 0.113281 2.625 0.03125 2.25 -0.0625 C 1.882812 -0.164062 1.566406 -0.273438 1.296875 -0.390625 C 1.035156 -0.515625 0.828125 -0.617188 0.671875 -0.703125 L 1.28125 -2.34375 C 1.59375 -2.164062 2.070312 -1.96875 2.71875 -1.75 C 3.363281 -1.53125 4.148438 -1.421875 5.078125 -1.421875 Z M 5.078125 -1.421875" transform="translate(42.946 220.199)"/></g></g></g><g><g><g><path d="M 11.296875 -14.265625 L 11.296875 -12.53125 L 6.8125 -12.53125 L 6.8125 0 L 4.8125 0 L 4.8125 -12.53125 L 0.328125 -12.53125 L 0.328125 -14.265625 Z M 11.296875 -14.265625" transform="translate(56.569 220.199)"/></g></g></g><g><g><g><path d="M 1.765625 0 L 1.765625 -14.265625 L 10.46875 -14.265625 L 10.46875 -12.546875 L 3.765625 -12.546875 L 3.765625 -8.3125 L 9.734375 -8.3125 L 9.734375 -6.640625 L 3.765625 -6.640625 L 3.765625 -1.703125 L 10.984375 -1.703125 L 10.984375 0 Z M 1.765625 0" transform="translate(70.87 220.199)"/></g></g></g><g><g><g><path d="M 8.171875 -1.96875 C 8.035156 -2.300781 7.851562 -2.71875 7.625 -3.21875 C 7.394531 -3.726562 7.148438 -4.28125 6.890625 -4.875 C 6.628906 -5.46875 6.351562 -6.078125 6.0625 -6.703125 C 5.769531 -7.328125 5.488281 -7.914062 5.21875 -8.46875 C 4.957031 -9.019531 4.710938 -9.515625 4.484375 -9.953125 C 4.265625 -10.398438 4.085938 -10.738281 3.953125 -10.96875 C 3.796875 -9.351562 3.671875 -7.597656 3.578125 -5.703125 C 3.484375 -3.816406 3.398438 -1.914062 3.328125 0 L 1.375 0 C 1.4375 -1.238281 1.5 -2.484375 1.5625 -3.734375 C 1.632812 -4.992188 1.710938 -6.226562 1.796875 -7.4375 C 1.890625 -8.65625 1.988281 -9.835938 2.09375 -10.984375 C 2.195312 -12.140625 2.304688 -13.234375 2.421875 -14.265625 L 4.171875 -14.265625 C 4.546875 -13.660156 4.945312 -12.945312 5.375 -12.125 C 5.800781 -11.300781 6.222656 -10.4375 6.640625 -9.53125 C 7.066406 -8.632812 7.476562 -7.738281 7.875 -6.84375 C 8.28125 -5.945312 8.644531 -5.128906 8.96875 -4.390625 C 9.300781 -5.128906 9.664062 -5.945312 10.0625 -6.84375 C 10.457031 -7.738281 10.867188 -8.632812 11.296875 -9.53125 C 11.722656 -10.4375 12.148438 -11.300781 12.578125 -12.125 C 13.003906 -12.945312 13.398438 -13.660156 13.765625 -14.265625 L 15.515625 -14.265625 C 15.984375 -9.660156 16.332031 -4.90625 16.5625 0 L 14.609375 0 C 14.535156 -1.914062 14.453125 -3.816406 14.359375 -5.703125 C 14.265625 -7.597656 14.144531 -9.351562 14 -10.96875 C 13.851562 -10.738281 13.664062 -10.398438 13.4375 -9.953125 C 13.21875 -9.515625 12.976562 -9.019531 12.71875 -8.46875 C 12.457031 -7.914062 12.175781 -7.328125 11.875 -6.703125 C 11.582031 -6.078125 11.304688 -5.46875 11.046875 -4.875 C 10.785156 -4.28125 10.539062 -3.726562 10.3125 -3.21875 C 10.09375 -2.71875 9.914062 -2.300781 9.78125 -1.96875 Z M 8.171875 -1.96875" transform="translate(85.296 220.199)"/></g></g></g><g><g><g><path d="M 11.296875 0 C 11.066406 -0.613281 10.847656 -1.21875 10.640625 -1.8125 C 10.429688 -2.414062 10.21875 -3.023438 10 -3.640625 L 3.546875 -3.640625 L 2.25 0 L 0.171875 0 C 0.710938 -1.507812 1.222656 -2.90625 1.703125 -4.1875 C 2.179688 -5.46875 2.648438 -6.679688 3.109375 -7.828125 C 3.578125 -8.984375 4.035156 -10.085938 4.484375 -11.140625 C 4.941406 -12.191406 5.414062 -13.234375 5.90625 -14.265625 L 7.734375 -14.265625 C 8.234375 -13.234375 8.707031 -12.191406 9.15625 -11.140625 C 9.613281 -10.085938 10.070312 -8.984375 10.53125 -7.828125 C 10.988281 -6.679688 11.457031 -5.46875 11.9375 -4.1875 C 12.414062 -2.90625 12.929688 -1.507812 13.484375 0 Z M 9.421875 -5.28125 C 8.984375 -6.476562 8.546875 -7.632812 8.109375 -8.75 C 7.679688 -9.875 7.234375 -10.945312 6.765625 -11.96875 C 6.285156 -10.945312 5.828125 -9.875 5.390625 -8.75 C 4.960938 -7.632812 4.535156 -6.476562 4.109375 -5.28125 Z M 9.421875 -5.28125" transform="translate(105.895 220.199)"/></g></g></g><g><g><g><path d="M 13.484375 -7.140625 C 13.484375 -5.898438 13.289062 -4.820312 12.90625 -3.90625 C 12.519531 -3 11.976562 -2.25 11.28125 -1.65625 C 10.582031 -1.0625 9.742188 -0.613281 8.765625 -0.3125 C 7.796875 -0.0195312 6.726562 0.125 5.5625 0.125 C 4.976562 0.125 4.335938 0.0976562 3.640625 0.046875 C 2.953125 0.00390625 2.328125 -0.0820312 1.765625 -0.21875 L 1.765625 -14.0625 C 2.328125 -14.195312 2.953125 -14.285156 3.640625 -14.328125 C 4.335938 -14.378906 4.976562 -14.40625 5.5625 -14.40625 C 6.726562 -14.40625 7.796875 -14.253906 8.765625 -13.953125 C 9.742188 -13.660156 10.582031 -13.21875 11.28125 -12.625 C 11.976562 -12.03125 12.519531 -11.273438 12.90625 -10.359375 C 13.289062 -9.453125 13.484375 -8.378906 13.484375 -7.140625 Z M 5.71875 -1.625 C 7.613281 -1.625 9.023438 -2.109375 9.953125 -3.078125 C 10.890625 -4.046875 11.359375 -5.398438 11.359375 -7.140625 C 11.359375 -8.878906 10.890625 -10.234375 9.953125 -11.203125 C 9.023438 -12.171875 7.613281 -12.65625 5.71875 -12.65625 C 5.15625 -12.65625 4.71875 -12.644531 4.40625 -12.625 C 4.101562 -12.613281 3.890625 -12.601562 3.765625 -12.59375 L 3.765625 -1.6875 C 3.890625 -1.675781 4.101562 -1.660156 4.40625 -1.640625 C 4.71875 -1.628906 5.15625 -1.625 5.71875 -1.625 Z M 5.71875 -1.625" transform="translate(129.642 220.199)"/></g></g></g><g><g><g><path d="M 1.765625 0 L 1.765625 -14.265625 L 10.46875 -14.265625 L 10.46875 -12.546875 L 3.765625 -12.546875 L 3.765625 -8.3125 L 9.734375 -8.3125 L 9.734375 -6.640625 L 3.765625 -6.640625 L 3.765625 -1.703125 L 10.984375 -1.703125 L 10.984375 0 Z M 1.765625 0" transform="translate(146.989 220.199)"/></g></g></g><g><g><g><path d="M 8.171875 -1.96875 C 8.035156 -2.300781 7.851562 -2.71875 7.625 -3.21875 C 7.394531 -3.726562 7.148438 -4.28125 6.890625 -4.875 C 6.628906 -5.46875 6.351562 -6.078125 6.0625 -6.703125 C 5.769531 -7.328125 5.488281 -7.914062 5.21875 -8.46875 C 4.957031 -9.019531 4.710938 -9.515625 4.484375 -9.953125 C 4.265625 -10.398438 4.085938 -10.738281 3.953125 -10.96875 C 3.796875 -9.351562 3.671875 -7.597656 3.578125 -5.703125 C 3.484375 -3.816406 3.398438 -1.914062 3.328125 0 L 1.375 0 C 1.4375 -1.238281 1.5 -2.484375 1.5625 -3.734375 C 1.632812 -4.992188 1.710938 -6.226562 1.796875 -7.4375 C 1.890625 -8.65625 1.988281 -9.835938 2.09375 -10.984375 C 2.195312 -12.140625 2.304688 -13.234375 2.421875 -14.265625 L 4.171875 -14.265625 C 4.546875 -13.660156 4.945312 -12.945312 5.375 -12.125 C 5.800781 -11.300781 6.222656 -10.4375 6.640625 -9.53125 C 7.066406 -8.632812 7.476562 -7.738281 7.875 -6.84375 C 8.28125 -5.945312 8.644531 -5.128906 8.96875 -4.390625 C 9.300781 -5.128906 9.664062 -5.945312 10.0625 -6.84375 C 10.457031 -7.738281 10.867188 -8.632812 11.296875 -9.53125 C 11.722656 -10.4375 12.148438 -11.300781 12.578125 -12.125 C 13.003906 -12.945312 13.398438 -13.660156 13.765625 -14.265625 L 15.515625 -14.265625 C 15.984375 -9.660156 16.332031 -4.90625 16.5625 0 L 14.609375 0 C 14.535156 -1.914062 14.453125 -3.816406 14.359375 -5.703125 C 14.265625 -7.597656 14.144531 -9.351562 14 -10.96875 C 13.851562 -10.738281 13.664062 -10.398438 13.4375 -9.953125 C 13.21875 -9.515625 12.976562 -9.019531 12.71875 -8.46875 C 12.457031 -7.914062 12.175781 -7.328125 11.875 -6.703125 C 11.582031 -6.078125 11.304688 -5.46875 11.046875 -4.875 C 10.785156 -4.28125 10.539062 -3.726562 10.3125 -3.21875 C 10.09375 -2.71875 9.914062 -2.300781 9.78125 -1.96875 Z M 8.171875 -1.96875" transform="translate(168.843 220.199)"/></g></g></g><g><g><g><path d="M 1.1875 -7.140625 C 1.1875 -8.359375 1.367188 -9.429688 1.734375 -10.359375 C 2.097656 -11.296875 2.59375 -12.078125 3.21875 -12.703125 C 3.84375 -13.328125 4.566406 -13.796875 5.390625 -14.109375 C 6.222656 -14.429688 7.109375 -14.59375 8.046875 -14.59375 C 8.960938 -14.59375 9.828125 -14.429688 10.640625 -14.109375 C 11.460938 -13.796875 12.179688 -13.328125 12.796875 -12.703125 C 13.410156 -12.078125 13.898438 -11.296875 14.265625 -10.359375 C 14.628906 -9.429688 14.8125 -8.359375 14.8125 -7.140625 C 14.8125 -5.921875 14.628906 -4.84375 14.265625 -3.90625 C 13.898438 -2.976562 13.410156 -2.203125 12.796875 -1.578125 C 12.179688 -0.953125 11.460938 -0.476562 10.640625 -0.15625 C 9.828125 0.15625 8.960938 0.3125 8.046875 0.3125 C 7.109375 0.3125 6.222656 0.15625 5.390625 -0.15625 C 4.566406 -0.476562 3.84375 -0.953125 3.21875 -1.578125 C 2.59375 -2.203125 2.097656 -2.976562 1.734375 -3.90625 C 1.367188 -4.84375 1.1875 -5.921875 1.1875 -7.140625 Z M 3.296875 -7.140625 C 3.296875 -6.273438 3.40625 -5.488281 3.625 -4.78125 C 3.84375 -4.070312 4.15625 -3.472656 4.5625 -2.984375 C 4.96875 -2.492188 5.460938 -2.113281 6.046875 -1.84375 C 6.628906 -1.570312 7.28125 -1.4375 8 -1.4375 C 8.726562 -1.4375 9.378906 -1.570312 9.953125 -1.84375 C 10.535156 -2.113281 11.023438 -2.492188 11.421875 -2.984375 C 11.828125 -3.472656 12.140625 -4.070312 12.359375 -4.78125 C 12.585938 -5.488281 12.703125 -6.273438 12.703125 -7.140625 C 12.703125 -8.003906 12.585938 -8.789062 12.359375 -9.5 C 12.140625 -10.207031 11.828125 -10.804688 11.421875 -11.296875 C 11.023438 -11.785156 10.535156 -12.164062 9.953125 -12.4375 C 9.378906 -12.707031 8.726562 -12.84375 8 -12.84375 C 7.28125 -12.84375 6.628906 -12.707031 6.046875 -12.4375 C 5.460938 -12.164062 4.96875 -11.785156 4.5625 -11.296875 C 4.15625 -10.804688 3.84375 -10.207031 3.625 -9.5 C 3.40625 -8.789062 3.296875 -8.003906 3.296875 -7.140625 Z M 3.296875 -7.140625" transform="translate(189.441 220.199)"/></g></g></g><g><g><g><path d="M 11.546875 0 C 11.242188 -0.507812 10.894531 -1.078125 10.5 -1.703125 C 10.113281 -2.335938 9.691406 -2.992188 9.234375 -3.671875 C 8.785156 -4.347656 8.316406 -5.035156 7.828125 -5.734375 C 7.335938 -6.441406 6.851562 -7.117188 6.375 -7.765625 C 5.894531 -8.421875 5.425781 -9.035156 4.96875 -9.609375 C 4.519531 -10.179688 4.101562 -10.6875 3.71875 -11.125 L 3.71875 0 L 1.765625 0 L 1.765625 -14.265625 L 3.359375 -14.265625 C 4.003906 -13.578125 4.691406 -12.773438 5.421875 -11.859375 C 6.148438 -10.953125 6.875 -10.015625 7.59375 -9.046875 C 8.320312 -8.078125 9.003906 -7.125 9.640625 -6.1875 C 10.273438 -5.257812 10.8125 -4.429688 11.25 -3.703125 L 11.25 -14.265625 L 13.21875 -14.265625 L 13.21875 0 Z M 11.546875 0" transform="translate(208.126 220.199)"/></g></g></g><g><g><g><path d="M 1.765625 -14.265625 L 3.765625 -14.265625 L 3.765625 0 L 1.765625 0 Z M 1.765625 -14.265625" transform="translate(225.782 220.199)"/></g></g></g><g><g><g><path d="M 11.296875 -14.265625 L 11.296875 -12.53125 L 6.8125 -12.53125 L 6.8125 0 L 4.8125 0 L 4.8125 -12.53125 L 0.328125 -12.53125 L 0.328125 -14.265625 Z M 11.296875 -14.265625" transform="translate(233.993 220.199)"/></g></g></g><g><g><g><path d="M 1.1875 -7.140625 C 1.1875 -8.359375 1.367188 -9.429688 1.734375 -10.359375 C 2.097656 -11.296875 2.59375 -12.078125 3.21875 -12.703125 C 3.84375 -13.328125 4.566406 -13.796875 5.390625 -14.109375 C 6.222656 -14.429688 7.109375 -14.59375 8.046875 -14.59375 C 8.960938 -14.59375 9.828125 -14.429688 10.640625 -14.109375 C 11.460938 -13.796875 12.179688 -13.328125 12.796875 -12.703125 C 13.410156 -12.078125 13.898438 -11.296875 14.265625 -10.359375 C 14.628906 -9.429688 14.8125 -8.359375 14.8125 -7.140625 C 14.8125 -5.921875 14.628906 -4.84375 14.265625 -3.90625 C 13.898438 -2.976562 13.410156 -2.203125 12.796875 -1.578125 C 12.179688 -0.953125 11.460938 -0.476562 10.640625 -0.15625 C 9.828125 0.15625 8.960938 0.3125 8.046875 0.3125 C 7.109375 0.3125 6.222656 0.15625 5.390625 -0.15625 C 4.566406 -0.476562 3.84375 -0.953125 3.21875 -1.578125 C 2.59375 -2.203125 2.097656 -2.976562 1.734375 -3.90625 C 1.367188 -4.84375 1.1875 -5.921875 1.1875 -7.140625 Z M 3.296875 -7.140625 C 3.296875 -6.273438 3.40625 -5.488281 3.625 -4.78125 C 3.84375 -4.070312 4.15625 -3.472656 4.5625 -2.984375 C 4.96875 -2.492188 5.460938 -2.113281 6.046875 -1.84375 C 6.628906 -1.570312 7.28125 -1.4375 8 -1.4375 C 8.726562 -1.4375 9.378906 -1.570312 9.953125 -1.84375 C 10.535156 -2.113281 11.023438 -2.492188 11.421875 -2.984375 C 11.828125 -3.472656 12.140625 -4.070312 12.359375 -4.78125 C 12.585938 -5.488281 12.703125 -6.273438 12.703125 -7.140625 C 12.703125 -8.003906 12.585938 -8.789062 12.359375 -9.5 C 12.140625 -10.207031 11.828125 -10.804688 11.421875 -11.296875 C 11.023438 -11.785156 10.535156 -12.164062 9.953125 -12.4375 C 9.378906 -12.707031 8.726562 -12.84375 8 -12.84375 C 7.28125 -12.84375 6.628906 -12.707031 6.046875 -12.4375 C 5.460938 -12.164062 4.96875 -11.785156 4.5625 -11.296875 C 4.15625 -10.804688 3.84375 -10.207031 3.625 -9.5 C 3.40625 -8.789062 3.296875 -8.003906 3.296875 -7.140625 Z M 3.296875 -7.140625" transform="translate(248.294 220.199)"/></g></g></g><g><g><g><path d="M 8.75 -5.96875 C 8.96875 -5.695312 9.242188 -5.335938 9.578125 -4.890625 C 9.910156 -4.441406 10.253906 -3.945312 10.609375 -3.40625 C 10.972656 -2.863281 11.328125 -2.296875 11.671875 -1.703125 C 12.023438 -1.117188 12.328125 -0.550781 12.578125 0 L 10.390625 0 C 10.117188 -0.519531 9.820312 -1.046875 9.5 -1.578125 C 9.175781 -2.117188 8.847656 -2.628906 8.515625 -3.109375 C 8.191406 -3.597656 7.867188 -4.054688 7.546875 -4.484375 C 7.222656 -4.910156 6.929688 -5.28125 6.671875 -5.59375 C 6.492188 -5.582031 6.3125 -5.578125 6.125 -5.578125 C 5.9375 -5.578125 5.75 -5.578125 5.5625 -5.578125 L 3.765625 -5.578125 L 3.765625 0 L 1.765625 0 L 1.765625 -14.0625 C 2.328125 -14.195312 2.953125 -14.285156 3.640625 -14.328125 C 4.335938 -14.378906 4.976562 -14.40625 5.5625 -14.40625 C 7.5625 -14.40625 9.082031 -14.023438 10.125 -13.265625 C 11.175781 -12.515625 11.703125 -11.390625 11.703125 -9.890625 C 11.703125 -8.953125 11.453125 -8.144531 10.953125 -7.46875 C 10.453125 -6.800781 9.71875 -6.300781 8.75 -5.96875 Z M 5.71875 -12.65625 C 4.863281 -12.65625 4.210938 -12.632812 3.765625 -12.59375 L 3.765625 -7.21875 L 5.1875 -7.21875 C 5.875 -7.21875 6.488281 -7.25 7.03125 -7.3125 C 7.582031 -7.382812 8.046875 -7.515625 8.421875 -7.703125 C 8.804688 -7.898438 9.097656 -8.171875 9.296875 -8.515625 C 9.503906 -8.867188 9.609375 -9.335938 9.609375 -9.921875 C 9.609375 -10.453125 9.503906 -10.894531 9.296875 -11.25 C 9.097656 -11.613281 8.820312 -11.894531 8.46875 -12.09375 C 8.113281 -12.300781 7.695312 -12.445312 7.21875 -12.53125 C 6.75 -12.613281 6.25 -12.65625 5.71875 -12.65625 Z M 5.71875 -12.65625" transform="translate(266.98 220.199)"/></g></g></g><g><g><g><path d="M 11.296875 0 C 11.066406 -0.613281 10.847656 -1.21875 10.640625 -1.8125 C 10.429688 -2.414062 10.21875 -3.023438 10 -3.640625 L 3.546875 -3.640625 L 2.25 0 L 0.171875 0 C 0.710938 -1.507812 1.222656 -2.90625 1.703125 -4.1875 C 2.179688 -5.46875 2.648438 -6.679688 3.109375 -7.828125 C 3.578125 -8.984375 4.035156 -10.085938 4.484375 -11.140625 C 4.941406 -12.191406 5.414062 -13.234375 5.90625 -14.265625 L 7.734375 -14.265625 C 8.234375 -13.234375 8.707031 -12.191406 9.15625 -11.140625 C 9.613281 -10.085938 10.070312 -8.984375 10.53125 -7.828125 C 10.988281 -6.679688 11.457031 -5.46875 11.9375 -4.1875 C 12.414062 -2.90625 12.929688 -1.507812 13.484375 0 Z M 9.421875 -5.28125 C 8.984375 -6.476562 8.546875 -7.632812 8.109375 -8.75 C 7.679688 -9.875 7.234375 -10.945312 6.765625 -11.96875 C 6.285156 -10.945312 5.828125 -9.875 5.390625 -8.75 C 4.960938 -7.632812 4.535156 -6.476562 4.109375 -5.28125 Z M 9.421875 -5.28125" transform="translate(282.598 220.199)"/></g></g></g><g><g><g><path d="M 8.171875 -1.96875 C 8.035156 -2.300781 7.851562 -2.71875 7.625 -3.21875 C 7.394531 -3.726562 7.148438 -4.28125 6.890625 -4.875 C 6.628906 -5.46875 6.351562 -6.078125 6.0625 -6.703125 C 5.769531 -7.328125 5.488281 -7.914062 5.21875 -8.46875 C 4.957031 -9.019531 4.710938 -9.515625 4.484375 -9.953125 C 4.265625 -10.398438 4.085938 -10.738281 3.953125 -10.96875 C 3.796875 -9.351562 3.671875 -7.597656 3.578125 -5.703125 C 3.484375 -3.816406 3.398438 -1.914062 3.328125 0 L 1.375 0 C 1.4375 -1.238281 1.5 -2.484375 1.5625 -3.734375 C 1.632812 -4.992188 1.710938 -6.226562 1.796875 -7.4375 C 1.890625 -8.65625 1.988281 -9.835938 2.09375 -10.984375 C 2.195312 -12.140625 2.304688 -13.234375 2.421875 -14.265625 L 4.171875 -14.265625 C 4.546875 -13.660156 4.945312 -12.945312 5.375 -12.125 C 5.800781 -11.300781 6.222656 -10.4375 6.640625 -9.53125 C 7.066406 -8.632812 7.476562 -7.738281 7.875 -6.84375 C 8.28125 -5.945312 8.644531 -5.128906 8.96875 -4.390625 C 9.300781 -5.128906 9.664062 -5.945312 10.0625 -6.84375 C 10.457031 -7.738281 10.867188 -8.632812 11.296875 -9.53125 C 11.722656 -10.4375 12.148438 -11.300781 12.578125 -12.125 C 13.003906 -12.945312 13.398438 -13.660156 13.765625 -14.265625 L 15.515625 -14.265625 C 15.984375 -9.660156 16.332031 -4.90625 16.5625 0 L 14.609375 0 C 14.535156 -1.914062 14.453125 -3.816406 14.359375 -5.703125 C 14.265625 -7.597656 14.144531 -9.351562 14 -10.96875 C 13.851562 -10.738281 13.664062 -10.398438 13.4375 -9.953125 C 13.21875 -9.515625 12.976562 -9.019531 12.71875 -8.46875 C 12.457031 -7.914062 12.175781 -7.328125 11.875 -6.703125 C 11.582031 -6.078125 11.304688 -5.46875 11.046875 -4.875 C 10.785156 -4.28125 10.539062 -3.726562 10.3125 -3.21875 C 10.09375 -2.71875 9.914062 -2.300781 9.78125 -1.96875 Z M 8.171875 -1.96875" transform="translate(298.916 220.199)"/></g></g></g><g><g><g><path d="M 1.765625 0 L 1.765625 -14.265625 L 10.46875 -14.265625 L 10.46875 -12.546875 L 3.765625 -12.546875 L 3.765625 -8.3125 L 9.734375 -8.3125 L 9.734375 -6.640625 L 3.765625 -6.640625 L 3.765625 -1.703125 L 10.984375 -1.703125 L 10.984375 0 Z M 1.765625 0" transform="translate(319.515 220.199)"/></g></g></g><g><g><g><path d="M 11.546875 0 C 11.242188 -0.507812 10.894531 -1.078125 10.5 -1.703125 C 10.113281 -2.335938 9.691406 -2.992188 9.234375 -3.671875 C 8.785156 -4.347656 8.316406 -5.035156 7.828125 -5.734375 C 7.335938 -6.441406 6.851562 -7.117188 6.375 -7.765625 C 5.894531 -8.421875 5.425781 -9.035156 4.96875 -9.609375 C 4.519531 -10.179688 4.101562 -10.6875 3.71875 -11.125 L 3.71875 0 L 1.765625 0 L 1.765625 -14.265625 L 3.359375 -14.265625 C 4.003906 -13.578125 4.691406 -12.773438 5.421875 -11.859375 C 6.148438 -10.953125 6.875 -10.015625 7.59375 -9.046875 C 8.320312 -8.078125 9.003906 -7.125 9.640625 -6.1875 C 10.273438 -5.257812 10.8125 -4.429688 11.25 -3.703125 L 11.25 -14.265625 L 13.21875 -14.265625 L 13.21875 0 Z M 11.546875 0" transform="translate(333.94 220.199)"/></g></g></g><g><g><g><path d="M 11.296875 -14.265625 L 11.296875 -12.53125 L 6.8125 -12.53125 L 6.8125 0 L 4.8125 0 L 4.8125 -12.53125 L 0.328125 -12.53125 L 0.328125 -14.265625 Z M 11.296875 -14.265625" transform="translate(351.596 220.199)"/></g></g></g><g><g><g><path d="M 1.1875 -7.140625 C 1.1875 -8.359375 1.367188 -9.429688 1.734375 -10.359375 C 2.097656 -11.296875 2.59375 -12.078125 3.21875 -12.703125 C 3.84375 -13.328125 4.566406 -13.796875 5.390625 -14.109375 C 6.222656 -14.429688 7.109375 -14.59375 8.046875 -14.59375 C 8.960938 -14.59375 9.828125 -14.429688 10.640625 -14.109375 C 11.460938 -13.796875 12.179688 -13.328125 12.796875 -12.703125 C 13.410156 -12.078125 13.898438 -11.296875 14.265625 -10.359375 C 14.628906 -9.429688 14.8125 -8.359375 14.8125 -7.140625 C 14.8125 -5.921875 14.628906 -4.84375 14.265625 -3.90625 C 13.898438 -2.976562 13.410156 -2.203125 12.796875 -1.578125 C 12.179688 -0.953125 11.460938 -0.476562 10.640625 -0.15625 C 9.828125 0.15625 8.960938 0.3125 8.046875 0.3125 C 7.109375 0.3125 6.222656 0.15625 5.390625 -0.15625 C 4.566406 -0.476562 3.84375 -0.953125 3.21875 -1.578125 C 2.59375 -2.203125 2.097656 -2.976562 1.734375 -3.90625 C 1.367188 -4.84375 1.1875 -5.921875 1.1875 -7.140625 Z M 3.296875 -7.140625 C 3.296875 -6.273438 3.40625 -5.488281 3.625 -4.78125 C 3.84375 -4.070312 4.15625 -3.472656 4.5625 -2.984375 C 4.96875 -2.492188 5.460938 -2.113281 6.046875 -1.84375 C 6.628906 -1.570312 7.28125 -1.4375 8 -1.4375 C 8.726562 -1.4375 9.378906 -1.570312 9.953125 -1.84375 C 10.535156 -2.113281 11.023438 -2.492188 11.421875 -2.984375 C 11.828125 -3.472656 12.140625 -4.070312 12.359375 -4.78125 C 12.585938 -5.488281 12.703125 -6.273438 12.703125 -7.140625 C 12.703125 -8.003906 12.585938 -8.789062 12.359375 -9.5 C 12.140625 -10.207031 11.828125 -10.804688 11.421875 -11.296875 C 11.023438 -11.785156 10.535156 -12.164062 9.953125 -12.4375 C 9.378906 -12.707031 8.726562 -12.84375 8 -12.84375 C 7.28125 -12.84375 6.628906 -12.707031 6.046875 -12.4375 C 5.460938 -12.164062 4.96875 -11.785156 4.5625 -11.296875 C 4.15625 -10.804688 3.84375 -10.207031 3.625 -9.5 C 3.40625 -8.789062 3.296875 -8.003906 3.296875 -7.140625 Z M 3.296875 -7.140625" transform="translate(365.898 220.199)"/></g></g></g><g><g><g><path d="M 13.484375 -7.140625 C 13.484375 -5.898438 13.289062 -4.820312 12.90625 -3.90625 C 12.519531 -3 11.976562 -2.25 11.28125 -1.65625 C 10.582031 -1.0625 9.742188 -0.613281 8.765625 -0.3125 C 7.796875 -0.0195312 6.726562 0.125 5.5625 0.125 C 4.976562 0.125 4.335938 0.0976562 3.640625 0.046875 C 2.953125 0.00390625 2.328125 -0.0820312 1.765625 -0.21875 L 1.765625 -14.0625 C 2.328125 -14.195312 2.953125 -14.285156 3.640625 -14.328125 C 4.335938 -14.378906 4.976562 -14.40625 5.5625 -14.40625 C 6.726562 -14.40625 7.796875 -14.253906 8.765625 -13.953125 C 9.742188 -13.660156 10.582031 -13.21875 11.28125 -12.625 C 11.976562 -12.03125 12.519531 -11.273438 12.90625 -10.359375 C 13.289062 -9.453125 13.484375 -8.378906 13.484375 -7.140625 Z M 5.71875 -1.625 C 7.613281 -1.625 9.023438 -2.109375 9.953125 -3.078125 C 10.890625 -4.046875 11.359375 -5.398438 11.359375 -7.140625 C 11.359375 -8.878906 10.890625 -10.234375 9.953125 -11.203125 C 9.023438 -12.171875 7.613281 -12.65625 5.71875 -12.65625 C 5.15625 -12.65625 4.71875 -12.644531 4.40625 -12.625 C 4.101562 -12.613281 3.890625 -12.601562 3.765625 -12.59375 L 3.765625 -1.6875 C 3.890625 -1.675781 4.101562 -1.660156 4.40625 -1.640625 C 4.71875 -1.628906 5.15625 -1.625 5.71875 -1.625 Z M 5.71875 -1.625" transform="translate(392.011 220.199)"/></g></g></g><g><g><g><path d="M 1.765625 0 L 1.765625 -14.265625 L 10.46875 -14.265625 L 10.46875 -12.546875 L 3.765625 -12.546875 L 3.765625 -8.3125 L 9.734375 -8.3125 L 9.734375 -6.640625 L 3.765625 -6.640625 L 3.765625 -1.703125 L 10.984375 -1.703125 L 10.984375 0 Z M 1.765625 0" transform="translate(409.359 220.199)"/></g></g></g><g><g><g><path d="M 1.765625 -14.265625 L 3.765625 -14.265625 L 3.765625 0 L 1.765625 0 Z M 1.765625 -14.265625" transform="translate(431.212 220.199)"/></g></g></g><g><g><g><path d="M 11.546875 0 C 11.242188 -0.507812 10.894531 -1.078125 10.5 -1.703125 C 10.113281 -2.335938 9.691406 -2.992188 9.234375 -3.671875 C 8.785156 -4.347656 8.316406 -5.035156 7.828125 -5.734375 C 7.335938 -6.441406 6.851562 -7.117188 6.375 -7.765625 C 5.894531 -8.421875 5.425781 -9.035156 4.96875 -9.609375 C 4.519531 -10.179688 4.101562 -10.6875 3.71875 -11.125 L 3.71875 0 L 1.765625 0 L 1.765625 -14.265625 L 3.359375 -14.265625 C 4.003906 -13.578125 4.691406 -12.773438 5.421875 -11.859375 C 6.148438 -10.953125 6.875 -10.015625 7.59375 -9.046875 C 8.320312 -8.078125 9.003906 -7.125 9.640625 -6.1875 C 10.273438 -5.257812 10.8125 -4.429688 11.25 -3.703125 L 11.25 -14.265625 L 13.21875 -14.265625 L 13.21875 0 Z M 11.546875 0" transform="translate(439.423 220.199)"/></g></g></g><g><g><g><path d="M 1.765625 0 L 1.765625 -14.265625 L 10.375 -14.265625 L 10.375 -12.546875 L 3.765625 -12.546875 L 3.765625 -8.25 L 9.625 -8.25 L 9.625 -6.5625 L 3.765625 -6.5625 L 3.765625 0 Z M 1.765625 0" transform="translate(457.079 220.199)"/></g></g></g><g><g><g><path d="M 1.765625 0 L 1.765625 -14.265625 L 10.46875 -14.265625 L 10.46875 -12.546875 L 3.765625 -12.546875 L 3.765625 -8.3125 L 9.734375 -8.3125 L 9.734375 -6.640625 L 3.765625 -6.640625 L 3.765625 -1.703125 L 10.984375 -1.703125 L 10.984375 0 Z M 1.765625 0" transform="translate(470.805 220.199)"/></g></g></g><g><g><g><path d="M 5.078125 -1.421875 C 7.160156 -1.421875 8.203125 -2.132812 8.203125 -3.5625 C 8.203125 -4 8.109375 -4.367188 7.921875 -4.671875 C 7.742188 -4.984375 7.492188 -5.253906 7.171875 -5.484375 C 6.859375 -5.710938 6.5 -5.90625 6.09375 -6.0625 C 5.695312 -6.226562 5.269531 -6.394531 4.8125 -6.5625 C 4.289062 -6.738281 3.796875 -6.941406 3.328125 -7.171875 C 2.867188 -7.398438 2.46875 -7.664062 2.125 -7.96875 C 1.78125 -8.28125 1.507812 -8.648438 1.3125 -9.078125 C 1.113281 -9.503906 1.015625 -10.019531 1.015625 -10.625 C 1.015625 -11.863281 1.4375 -12.832031 2.28125 -13.53125 C 3.132812 -14.238281 4.304688 -14.59375 5.796875 -14.59375 C 6.660156 -14.59375 7.445312 -14.5 8.15625 -14.3125 C 8.863281 -14.125 9.382812 -13.921875 9.71875 -13.703125 L 9.078125 -12.078125 C 8.785156 -12.253906 8.351562 -12.425781 7.78125 -12.59375 C 7.21875 -12.769531 6.554688 -12.859375 5.796875 -12.859375 C 5.421875 -12.859375 5.066406 -12.816406 4.734375 -12.734375 C 4.398438 -12.648438 4.109375 -12.523438 3.859375 -12.359375 C 3.617188 -12.203125 3.425781 -11.992188 3.28125 -11.734375 C 3.132812 -11.484375 3.0625 -11.1875 3.0625 -10.84375 C 3.0625 -10.457031 3.132812 -10.132812 3.28125 -9.875 C 3.4375 -9.613281 3.648438 -9.382812 3.921875 -9.1875 C 4.203125 -8.988281 4.523438 -8.804688 4.890625 -8.640625 C 5.253906 -8.472656 5.65625 -8.3125 6.09375 -8.15625 C 6.707031 -7.90625 7.269531 -7.65625 7.78125 -7.40625 C 8.300781 -7.15625 8.75 -6.859375 9.125 -6.515625 C 9.5 -6.179688 9.789062 -5.773438 10 -5.296875 C 10.207031 -4.828125 10.3125 -4.253906 10.3125 -3.578125 C 10.3125 -2.328125 9.851562 -1.363281 8.9375 -0.6875 C 8.03125 -0.0195312 6.742188 0.3125 5.078125 0.3125 C 4.515625 0.3125 3.992188 0.269531 3.515625 0.1875 C 3.046875 0.113281 2.625 0.03125 2.25 -0.0625 C 1.882812 -0.164062 1.566406 -0.273438 1.296875 -0.390625 C 1.035156 -0.515625 0.828125 -0.617188 0.671875 -0.703125 L 1.28125 -2.34375 C 1.59375 -2.164062 2.070312 -1.96875 2.71875 -1.75 C 3.363281 -1.53125 4.148438 -1.421875 5.078125 -1.421875 Z M 5.078125 -1.421875" transform="translate(485.23 220.199)"/></g></g></g><g><g><g><path d="M 11.296875 -14.265625 L 11.296875 -12.53125 L 6.8125 -12.53125 L 6.8125 0 L 4.8125 0 L 4.8125 -12.53125 L 0.328125 -12.53125 L 0.328125 -14.265625 Z M 11.296875 -14.265625" transform="translate(498.852 220.199)"/></g></g></g><g><g><g><path d="M 11.296875 0 C 11.066406 -0.613281 10.847656 -1.21875 10.640625 -1.8125 C 10.429688 -2.414062 10.21875 -3.023438 10 -3.640625 L 3.546875 -3.640625 L 2.25 0 L 0.171875 0 C 0.710938 -1.507812 1.222656 -2.90625 1.703125 -4.1875 C 2.179688 -5.46875 2.648438 -6.679688 3.109375 -7.828125 C 3.578125 -8.984375 4.035156 -10.085938 4.484375 -11.140625 C 4.941406 -12.191406 5.414062 -13.234375 5.90625 -14.265625 L 7.734375 -14.265625 C 8.234375 -13.234375 8.707031 -12.191406 9.15625 -11.140625 C 9.613281 -10.085938 10.070312 -8.984375 10.53125 -7.828125 C 10.988281 -6.679688 11.457031 -5.46875 11.9375 -4.1875 C 12.414062 -2.90625 12.929688 -1.507812 13.484375 0 Z M 9.421875 -5.28125 C 8.984375 -6.476562 8.546875 -7.632812 8.109375 -8.75 C 7.679688 -9.875 7.234375 -10.945312 6.765625 -11.96875 C 6.285156 -10.945312 5.828125 -9.875 5.390625 -8.75 C 4.960938 -7.632812 4.535156 -6.476562 4.109375 -5.28125 Z M 9.421875 -5.28125" transform="translate(513.154 220.199)"/></g></g></g><g><g><g><path d="M 6.796875 0.21875 C 5.941406 0.113281 5.171875 -0.125 4.484375 -0.5 C 3.796875 -0.875 3.207031 -1.375 2.71875 -2 C 2.238281 -2.625 1.863281 -3.363281 1.59375 -4.21875 C 1.320312 -5.082031 1.1875 -6.054688 1.1875 -7.140625 C 1.1875 -8.335938 1.367188 -9.394531 1.734375 -10.3125 C 2.097656 -11.238281 2.585938 -12.019531 3.203125 -12.65625 C 3.828125 -13.289062 4.550781 -13.769531 5.375 -14.09375 C 6.195312 -14.425781 7.070312 -14.59375 8 -14.59375 C 8.59375 -14.59375 9.125 -14.550781 9.59375 -14.46875 C 10.070312 -14.382812 10.484375 -14.285156 10.828125 -14.171875 C 11.179688 -14.066406 11.46875 -13.957031 11.6875 -13.84375 C 11.90625 -13.738281 12.054688 -13.660156 12.140625 -13.609375 L 11.5625 -11.953125 C 11.4375 -12.035156 11.257812 -12.125 11.03125 -12.21875 C 10.800781 -12.320312 10.535156 -12.421875 10.234375 -12.515625 C 9.941406 -12.609375 9.617188 -12.6875 9.265625 -12.75 C 8.921875 -12.8125 8.566406 -12.84375 8.203125 -12.84375 C 7.453125 -12.84375 6.773438 -12.710938 6.171875 -12.453125 C 5.566406 -12.191406 5.050781 -11.8125 4.625 -11.3125 C 4.195312 -10.820312 3.867188 -10.222656 3.640625 -9.515625 C 3.421875 -8.804688 3.3125 -8.015625 3.3125 -7.140625 C 3.3125 -6.285156 3.410156 -5.507812 3.609375 -4.8125 C 3.804688 -4.113281 4.101562 -3.515625 4.5 -3.015625 C 4.90625 -2.515625 5.40625 -2.125 6 -1.84375 C 6.59375 -1.570312 7.289062 -1.4375 8.09375 -1.4375 C 9.007812 -1.4375 9.769531 -1.53125 10.375 -1.71875 C 10.976562 -1.914062 11.429688 -2.09375 11.734375 -2.25 L 12.25 -0.59375 C 12.050781 -0.445312 11.582031 -0.265625 10.84375 -0.046875 C 10.113281 0.160156 9.1875 0.28125 8.0625 0.3125 C 8.019531 0.394531 7.984375 0.472656 7.953125 0.546875 C 7.921875 0.617188 7.890625 0.691406 7.859375 0.765625 C 8.253906 0.953125 8.539062 1.160156 8.71875 1.390625 C 8.90625 1.617188 9 1.953125 9 2.390625 C 9 2.535156 8.960938 2.695312 8.890625 2.875 C 8.816406 3.0625 8.695312 3.226562 8.53125 3.375 C 8.375 3.519531 8.15625 3.640625 7.875 3.734375 C 7.601562 3.835938 7.269531 3.890625 6.875 3.890625 C 6.519531 3.890625 6.191406 3.859375 5.890625 3.796875 C 5.597656 3.742188 5.363281 3.6875 5.1875 3.625 L 5.40625 2.453125 C 5.570312 2.503906 5.75 2.550781 5.9375 2.59375 C 6.125 2.632812 6.332031 2.65625 6.5625 2.65625 C 7.0625 2.65625 7.3125 2.5 7.3125 2.1875 C 7.3125 2.03125 7.234375 1.898438 7.078125 1.796875 C 6.929688 1.691406 6.71875 1.585938 6.4375 1.484375 L 6.296875 1.421875 C 6.347656 1.253906 6.414062 1.0625 6.5 0.84375 C 6.59375 0.625 6.691406 0.414062 6.796875 0.21875 Z M 6.796875 0.21875" transform="translate(529.473 220.199)"/></g></g></g><g><g><g><path d="M 11.296875 0 C 11.066406 -0.613281 10.847656 -1.21875 10.640625 -1.8125 C 10.429688 -2.414062 10.21875 -3.023438 10 -3.640625 L 3.546875 -3.640625 L 2.25 0 L 0.171875 0 C 0.710938 -1.507812 1.222656 -2.90625 1.703125 -4.1875 C 2.179688 -5.46875 2.648438 -6.679688 3.109375 -7.828125 C 3.578125 -8.984375 4.035156 -10.085938 4.484375 -11.140625 C 4.941406 -12.191406 5.414062 -13.234375 5.90625 -14.265625 L 7.734375 -14.265625 C 8.234375 -13.234375 8.707031 -12.191406 9.15625 -11.140625 C 9.613281 -10.085938 10.070312 -8.984375 10.53125 -7.828125 C 10.988281 -6.679688 11.457031 -5.46875 11.9375 -4.1875 C 12.414062 -2.90625 12.929688 -1.507812 13.484375 0 Z M 9.421875 -5.28125 C 8.984375 -6.476562 8.546875 -7.632812 8.109375 -8.75 C 7.679688 -9.875 7.234375 -10.945312 6.765625 -11.96875 C 6.285156 -10.945312 5.828125 -9.875 5.390625 -8.75 C 4.960938 -7.632812 4.535156 -6.476562 4.109375 -5.28125 Z M 10.25 -17.625 C 10.175781 -17.46875 10.082031 -17.273438 9.96875 -17.046875 C 9.851562 -16.828125 9.703125 -16.625 9.515625 -16.4375 C 9.335938 -16.257812 9.128906 -16.101562 8.890625 -15.96875 C 8.648438 -15.84375 8.390625 -15.78125 8.109375 -15.78125 C 7.828125 -15.78125 7.566406 -15.828125 7.328125 -15.921875 C 7.085938 -16.015625 6.859375 -16.117188 6.640625 -16.234375 C 6.410156 -16.335938 6.210938 -16.414062 6.046875 -16.46875 C 5.878906 -16.53125 5.722656 -16.5625 5.578125 -16.5625 C 5.335938 -16.5625 5.117188 -16.460938 4.921875 -16.265625 C 4.722656 -16.078125 4.570312 -15.875 4.46875 -15.65625 L 3.46875 -16.15625 C 3.53125 -16.3125 3.617188 -16.5 3.734375 -16.71875 C 3.859375 -16.945312 4.007812 -17.148438 4.1875 -17.328125 C 4.375 -17.515625 4.585938 -17.671875 4.828125 -17.796875 C 5.066406 -17.929688 5.328125 -18 5.609375 -18 C 5.890625 -18 6.148438 -17.953125 6.390625 -17.859375 C 6.628906 -17.765625 6.859375 -17.660156 7.078125 -17.546875 C 7.304688 -17.441406 7.503906 -17.359375 7.671875 -17.296875 C 7.835938 -17.242188 7.992188 -17.21875 8.140625 -17.21875 C 8.378906 -17.21875 8.597656 -17.3125 8.796875 -17.5 C 8.992188 -17.695312 9.144531 -17.90625 9.25 -18.125 Z M 10.25 -17.625" transform="translate(544.906 220.199)"/></g></g></g><g><g><g><path d="M 1.1875 -7.140625 C 1.1875 -8.359375 1.367188 -9.429688 1.734375 -10.359375 C 2.097656 -11.296875 2.59375 -12.078125 3.21875 -12.703125 C 3.84375 -13.328125 4.566406 -13.796875 5.390625 -14.109375 C 6.222656 -14.429688 7.109375 -14.59375 8.046875 -14.59375 C 8.960938 -14.59375 9.828125 -14.429688 10.640625 -14.109375 C 11.460938 -13.796875 12.179688 -13.328125 12.796875 -12.703125 C 13.410156 -12.078125 13.898438 -11.296875 14.265625 -10.359375 C 14.628906 -9.429688 14.8125 -8.359375 14.8125 -7.140625 C 14.8125 -5.921875 14.628906 -4.84375 14.265625 -3.90625 C 13.898438 -2.976562 13.410156 -2.203125 12.796875 -1.578125 C 12.179688 -0.953125 11.460938 -0.476562 10.640625 -0.15625 C 9.828125 0.15625 8.960938 0.3125 8.046875 0.3125 C 7.109375 0.3125 6.222656 0.15625 5.390625 -0.15625 C 4.566406 -0.476562 3.84375 -0.953125 3.21875 -1.578125 C 2.59375 -2.203125 2.097656 -2.976562 1.734375 -3.90625 C 1.367188 -4.84375 1.1875 -5.921875 1.1875 -7.140625 Z M 3.296875 -7.140625 C 3.296875 -6.273438 3.40625 -5.488281 3.625 -4.78125 C 3.84375 -4.070312 4.15625 -3.472656 4.5625 -2.984375 C 4.96875 -2.492188 5.460938 -2.113281 6.046875 -1.84375 C 6.628906 -1.570312 7.28125 -1.4375 8 -1.4375 C 8.726562 -1.4375 9.378906 -1.570312 9.953125 -1.84375 C 10.535156 -2.113281 11.023438 -2.492188 11.421875 -2.984375 C 11.828125 -3.472656 12.140625 -4.070312 12.359375 -4.78125 C 12.585938 -5.488281 12.703125 -6.273438 12.703125 -7.140625 C 12.703125 -8.003906 12.585938 -8.789062 12.359375 -9.5 C 12.140625 -10.207031 11.828125 -10.804688 11.421875 -11.296875 C 11.023438 -11.785156 10.535156 -12.164062 9.953125 -12.4375 C 9.378906 -12.707031 8.726562 -12.84375 8 -12.84375 C 7.28125 -12.84375 6.628906 -12.707031 6.046875 -12.4375 C 5.460938 -12.164062 4.96875 -11.785156 4.5625 -11.296875 C 4.15625 -10.804688 3.84375 -10.207031 3.625 -9.5 C 3.40625 -8.789062 3.296875 -8.003906 3.296875 -7.140625 Z M 3.296875 -7.140625" transform="translate(561.224 220.199)"/></g></g></g><g><g><g><path d="M 13.484375 -7.140625 C 13.484375 -5.898438 13.289062 -4.820312 12.90625 -3.90625 C 12.519531 -3 11.976562 -2.25 11.28125 -1.65625 C 10.582031 -1.0625 9.742188 -0.613281 8.765625 -0.3125 C 7.796875 -0.0195312 6.726562 0.125 5.5625 0.125 C 4.976562 0.125 4.335938 0.0976562 3.640625 0.046875 C 2.953125 0.00390625 2.328125 -0.0820312 1.765625 -0.21875 L 1.765625 -14.0625 C 2.328125 -14.195312 2.953125 -14.285156 3.640625 -14.328125 C 4.335938 -14.378906 4.976562 -14.40625 5.5625 -14.40625 C 6.726562 -14.40625 7.796875 -14.253906 8.765625 -13.953125 C 9.742188 -13.660156 10.582031 -13.21875 11.28125 -12.625 C 11.976562 -12.03125 12.519531 -11.273438 12.90625 -10.359375 C 13.289062 -9.453125 13.484375 -8.378906 13.484375 -7.140625 Z M 5.71875 -1.625 C 7.613281 -1.625 9.023438 -2.109375 9.953125 -3.078125 C 10.890625 -4.046875 11.359375 -5.398438 11.359375 -7.140625 C 11.359375 -8.878906 10.890625 -10.234375 9.953125 -11.203125 C 9.023438 -12.171875 7.613281 -12.65625 5.71875 -12.65625 C 5.15625 -12.65625 4.71875 -12.644531 4.40625 -12.625 C 4.101562 -12.613281 3.890625 -12.601562 3.765625 -12.59375 L 3.765625 -1.6875 C 3.890625 -1.675781 4.101562 -1.660156 4.40625 -1.640625 C 4.71875 -1.628906 5.15625 -1.625 5.71875 -1.625 Z M 5.71875 -1.625" transform="translate(587.338 220.199)"/></g></g></g><g><g><g><path d="M 1.765625 0 L 1.765625 -14.265625 L 10.46875 -14.265625 L 10.46875 -12.546875 L 3.765625 -12.546875 L 3.765625 -8.3125 L 9.734375 -8.3125 L 9.734375 -6.640625 L 3.765625 -6.640625 L 3.765625 -1.703125 L 10.984375 -1.703125 L 10.984375 0 Z M 1.765625 0" transform="translate(604.685 220.199)"/></g></g></g><g><g><g><path d="M 13.484375 -7.140625 C 13.484375 -5.898438 13.289062 -4.820312 12.90625 -3.90625 C 12.519531 -3 11.976562 -2.25 11.28125 -1.65625 C 10.582031 -1.0625 9.742188 -0.613281 8.765625 -0.3125 C 7.796875 -0.0195312 6.726562 0.125 5.5625 0.125 C 4.976562 0.125 4.335938 0.0976562 3.640625 0.046875 C 2.953125 0.00390625 2.328125 -0.0820312 1.765625 -0.21875 L 1.765625 -14.0625 C 2.328125 -14.195312 2.953125 -14.285156 3.640625 -14.328125 C 4.335938 -14.378906 4.976562 -14.40625 5.5625 -14.40625 C 6.726562 -14.40625 7.796875 -14.253906 8.765625 -13.953125 C 9.742188 -13.660156 10.582031 -13.21875 11.28125 -12.625 C 11.976562 -12.03125 12.519531 -11.273438 12.90625 -10.359375 C 13.289062 -9.453125 13.484375 -8.378906 13.484375 -7.140625 Z M 5.71875 -1.625 C 7.613281 -1.625 9.023438 -2.109375 9.953125 -3.078125 C 10.890625 -4.046875 11.359375 -5.398438 11.359375 -7.140625 C 11.359375 -8.878906 10.890625 -10.234375 9.953125 -11.203125 C 9.023438 -12.171875 7.613281 -12.65625 5.71875 -12.65625 C 5.15625 -12.65625 4.71875 -12.644531 4.40625 -12.625 C 4.101562 -12.613281 3.890625 -12.601562 3.765625 -12.59375 L 3.765625 -1.6875 C 3.890625 -1.675781 4.101562 -1.660156 4.40625 -1.640625 C 4.71875 -1.628906 5.15625 -1.625 5.71875 -1.625 Z M 5.71875 -1.625" transform="translate(626.54 220.199)"/></g></g></g><g><g><g><path d="M 1.765625 0 L 1.765625 -14.265625 L 10.46875 -14.265625 L 10.46875 -12.546875 L 3.765625 -12.546875 L 3.765625 -8.3125 L 9.734375 -8.3125 L 9.734375 -6.640625 L 3.765625 -6.640625 L 3.765625 -1.703125 L 10.984375 -1.703125 L 10.984375 0 Z M 1.765625 0" transform="translate(643.886 220.199)"/></g></g></g><g><g><g><path d="M 11.546875 0 C 11.242188 -0.507812 10.894531 -1.078125 10.5 -1.703125 C 10.113281 -2.335938 9.691406 -2.992188 9.234375 -3.671875 C 8.785156 -4.347656 8.316406 -5.035156 7.828125 -5.734375 C 7.335938 -6.441406 6.851562 -7.117188 6.375 -7.765625 C 5.894531 -8.421875 5.425781 -9.035156 4.96875 -9.609375 C 4.519531 -10.179688 4.101562 -10.6875 3.71875 -11.125 L 3.71875 0 L 1.765625 0 L 1.765625 -14.265625 L 3.359375 -14.265625 C 4.003906 -13.578125 4.691406 -12.773438 5.421875 -11.859375 C 6.148438 -10.953125 6.875 -10.015625 7.59375 -9.046875 C 8.320312 -8.078125 9.003906 -7.125 9.640625 -6.1875 C 10.273438 -5.257812 10.8125 -4.429688 11.25 -3.703125 L 11.25 -14.265625 L 13.21875 -14.265625 L 13.21875 0 Z M 11.546875 0" transform="translate(658.312 220.199)"/></g></g></g><g><g><g><path d="M 10.46875 -7.015625 L 12.46875 -7.015625 L 12.46875 -0.34375 C 12.300781 -0.289062 12.0625 -0.226562 11.75 -0.15625 C 11.445312 -0.09375 11.09375 -0.03125 10.6875 0.03125 C 10.28125 0.101562 9.835938 0.160156 9.359375 0.203125 C 8.878906 0.253906 8.394531 0.28125 7.90625 0.28125 C 6.90625 0.28125 5.992188 0.117188 5.171875 -0.203125 C 4.347656 -0.535156 3.640625 -1.015625 3.046875 -1.640625 C 2.453125 -2.273438 1.992188 -3.050781 1.671875 -3.96875 C 1.347656 -4.882812 1.1875 -5.941406 1.1875 -7.140625 C 1.1875 -8.335938 1.367188 -9.394531 1.734375 -10.3125 C 2.097656 -11.238281 2.585938 -12.019531 3.203125 -12.65625 C 3.828125 -13.289062 4.550781 -13.769531 5.375 -14.09375 C 6.207031 -14.425781 7.097656 -14.59375 8.046875 -14.59375 C 8.691406 -14.59375 9.265625 -14.550781 9.765625 -14.46875 C 10.265625 -14.382812 10.691406 -14.285156 11.046875 -14.171875 C 11.398438 -14.066406 11.691406 -13.957031 11.921875 -13.84375 C 12.148438 -13.738281 12.304688 -13.660156 12.390625 -13.609375 L 11.75 -11.9375 C 11.351562 -12.195312 10.820312 -12.410156 10.15625 -12.578125 C 9.5 -12.753906 8.832031 -12.84375 8.15625 -12.84375 C 7.425781 -12.84375 6.757812 -12.710938 6.15625 -12.453125 C 5.5625 -12.191406 5.054688 -11.8125 4.640625 -11.3125 C 4.222656 -10.820312 3.894531 -10.222656 3.65625 -9.515625 C 3.425781 -8.804688 3.3125 -8.015625 3.3125 -7.140625 C 3.3125 -6.285156 3.410156 -5.507812 3.609375 -4.8125 C 3.804688 -4.113281 4.109375 -3.515625 4.515625 -3.015625 C 4.921875 -2.515625 5.421875 -2.125 6.015625 -1.84375 C 6.617188 -1.570312 7.320312 -1.4375 8.125 -1.4375 C 8.707031 -1.4375 9.195312 -1.46875 9.59375 -1.53125 C 10 -1.59375 10.289062 -1.648438 10.46875 -1.703125 Z M 10.46875 -7.015625" transform="translate(675.968 220.199)"/></g></g></g><g><g><g><path d="M 7.078125 0.3125 C 6.140625 0.3125 5.328125 0.164062 4.640625 -0.125 C 3.960938 -0.414062 3.40625 -0.8125 2.96875 -1.3125 C 2.53125 -1.8125 2.203125 -2.398438 1.984375 -3.078125 C 1.773438 -3.765625 1.671875 -4.507812 1.671875 -5.3125 L 1.671875 -14.265625 L 3.65625 -14.265625 L 3.65625 -5.53125 C 3.65625 -4.101562 3.972656 -3.066406 4.609375 -2.421875 C 5.242188 -1.785156 6.066406 -1.46875 7.078125 -1.46875 C 7.585938 -1.46875 8.050781 -1.546875 8.46875 -1.703125 C 8.882812 -1.859375 9.242188 -2.097656 9.546875 -2.421875 C 9.847656 -2.753906 10.082031 -3.175781 10.25 -3.6875 C 10.414062 -4.207031 10.5 -4.820312 10.5 -5.53125 L 10.5 -14.265625 L 12.484375 -14.265625 L 12.484375 -5.3125 C 12.484375 -4.507812 12.378906 -3.765625 12.171875 -3.078125 C 11.960938 -2.398438 11.632812 -1.8125 11.1875 -1.3125 C 10.738281 -0.8125 10.175781 -0.414062 9.5 -0.125 C 8.820312 0.164062 8.015625 0.3125 7.078125 0.3125 Z M 7.078125 0.3125" transform="translate(692.471 220.199)"/></g></g></g><g><g><g><path d="M 1.765625 0 L 1.765625 -14.265625 L 10.46875 -14.265625 L 10.46875 -12.546875 L 3.765625 -12.546875 L 3.765625 -8.3125 L 9.734375 -8.3125 L 9.734375 -6.640625 L 3.765625 -6.640625 L 3.765625 -1.703125 L 10.984375 -1.703125 L 10.984375 0 Z M 1.765625 0" transform="translate(709.304 220.199)"/></g></g></g></svg>